<svg width="230" height="230" viewBox="0 0 230 230" fill="none" xmlns="http://www.w3.org/2000/svg">
<mask id="mask0_150_584" style="mask-type:luminance" maskUnits="userSpaceOnUse" x="22" y="32" width="187" height="166">
<path d="M208.667 32.1918H22.6665V197.808H208.667V32.1918Z" fill="white"/>
</mask>
<g mask="url(#mask0_150_584)">
<path d="M113.799 111.765V62.6616L76.7119 32.1887V74.9969C34.9445 86.6056 42.9028 97.8221 49.3092 102.619L22.6665 115.412L66.0943 136.279L110.089 115.412L66.0943 94.5611L50.1974 102.196C43.3754 92.979 64.1485 81.9575 76.7119 76.3626V81.9109L113.799 111.765Z" fill="#BF0A44"/>
<path d="M156.894 148.091L119.806 118.234V167.335L136.024 180.662C133.156 193.25 116.951 183.797 105.27 174.985L114.589 167.335V118.234L77.502 148.091V197.808L103.521 176.432C132.434 206.075 135.912 187.293 136.293 180.874L156.895 197.808L156.894 148.091Z" fill="#0063B0"/>
<path d="M169.923 97.05C179.783 51.0434 162.139 58.3278 156.101 61.945V32.1915L119.013 62.6627V111.764L156.101 81.9012V62.3387C169.188 57.3953 169.512 81.7311 168.586 96.4145L164.683 94.5622L121.255 115.415L164.683 136.282L208.674 115.415L169.923 97.05Z" fill="#249795"/>
</g>
</svg>
