<svg width="230" height="230" viewBox="0 0 230 230" fill="none" xmlns="http://www.w3.org/2000/svg">
<mask id="mask0_150_572" style="mask-type:luminance" maskUnits="userSpaceOnUse" x="15" y="31" width="200" height="168">
<path d="M214.333 31.0753H15.0713V198.24H214.333V31.0753Z" fill="white"/>
</mask>
<g mask="url(#mask0_150_572)">
<path d="M204.203 139.227C199.246 134.277 192.902 130.95 186.013 129.687C179.122 128.424 172.01 129.285 165.621 132.156C165.817 127.4 165.025 122.655 163.296 118.22C161.568 113.785 158.938 109.757 155.574 106.389H155.558L171.858 90.0901C175.081 86.8843 177.641 83.0739 179.39 78.8774C181.139 74.6808 182.043 70.1805 182.049 65.6342C182.056 61.0878 181.166 56.5848 179.43 52.383C177.693 48.1812 175.146 44.3632 171.931 41.1478C168.718 37.9323 164.901 35.3824 160.7 33.6443C156.498 31.9061 151.996 31.0139 147.45 31.0186C142.903 31.0233 138.402 31.9248 134.205 33.6717C130.008 35.4185 126.196 37.9762 122.989 41.1983C119.191 44.982 116.341 49.6101 114.673 54.7049C112.99 49.7821 110.217 45.3028 106.561 41.6012C102.905 37.8995 98.4609 35.071 93.5595 33.3266C88.6582 31.5822 83.4261 30.967 78.2538 31.5267C73.0814 32.0864 68.1021 33.8067 63.6873 36.5592C59.2725 39.3117 55.5361 43.0255 52.7568 47.4234C49.9775 51.8214 48.2271 56.7902 47.6359 61.959C47.0448 67.1279 47.6283 72.3636 49.3429 77.2755C51.0575 82.1874 53.8589 86.6488 57.5383 90.3271L73.8399 106.64L73.8269 106.633C70.521 109.938 67.9229 113.881 66.1908 118.223C64.4587 122.565 63.629 127.214 63.7522 131.886C58.0014 129.313 51.6565 128.36 45.4035 129.131C39.1505 129.902 33.2272 132.367 28.274 136.261C23.3207 140.155 19.5261 145.328 17.3002 151.222C15.0743 157.116 14.5018 163.507 15.6447 169.703C16.7876 175.899 19.6024 181.664 23.7848 186.376C27.9671 191.088 33.3579 194.567 39.3743 196.437C45.3907 198.307 51.804 198.498 57.9206 196.987C64.0372 195.477 69.6245 192.322 74.0785 187.866L90.1423 171.827C96.6257 178.309 105.419 181.95 114.587 181.95C123.754 181.95 132.548 178.309 139.031 171.827L155.308 188.111C161.794 194.576 170.581 198.203 179.738 198.196C188.896 198.189 197.677 194.549 204.153 188.074C210.63 181.6 214.273 172.819 214.282 163.661C214.291 154.503 210.666 145.717 204.203 139.229V139.227ZM131.126 49.341C135.449 45.0226 141.311 42.597 147.421 42.597C153.532 42.597 159.394 45.0226 163.717 49.341V49.3597C165.857 51.4993 167.554 54.0394 168.712 56.835C169.87 59.6306 170.466 62.6269 170.466 65.6528C170.466 68.6787 169.87 71.675 168.712 74.4705C167.554 77.2661 165.857 79.8063 163.717 81.9459L147.423 98.2401L131.126 81.9459C126.803 77.6217 124.375 71.7577 124.375 65.6434C124.375 59.5291 126.803 53.6651 131.126 49.341ZM65.9448 179.729C62.7213 182.954 58.614 185.15 54.1423 186.04C49.6706 186.931 45.0353 186.474 40.8228 184.73C36.6102 182.985 33.0097 180.031 30.4763 176.24C27.9431 172.449 26.591 167.992 26.591 163.433C26.591 158.873 27.9431 154.416 30.4763 150.626C33.0097 146.835 36.6102 143.88 40.8228 142.135C45.0353 140.391 49.6706 139.935 54.1423 140.825C58.614 141.715 62.7213 143.912 65.9448 147.136L81.9793 163.664L65.9448 179.729ZM82.2162 147.127L79.4969 144.399C76.3514 139.963 74.8754 134.558 75.3296 129.138C75.7839 123.719 78.1392 118.635 81.9793 114.784C86.257 119.064 88.6796 124.856 88.7239 130.907C88.7682 136.959 86.4308 142.784 82.2162 147.127ZM81.9891 98.4779L65.6883 82.1803C62.466 78.9579 60.2716 74.8523 59.3826 70.3827C58.4936 65.9131 58.9499 61.2803 60.6939 57.0701C62.4379 52.8598 65.3912 49.2613 69.1803 46.7295C72.9694 44.1978 77.4242 42.8464 81.9813 42.8464C86.5385 42.8464 90.9932 44.1978 94.7824 46.7295C98.5716 49.2613 101.525 52.8598 103.269 57.0701C105.013 61.2803 105.469 65.9131 104.58 70.3827C103.691 74.8523 101.497 78.9579 98.2744 82.1803L81.9891 98.4779ZM98.5472 163.432C102.884 159.218 108.705 156.881 114.752 156.923C120.799 156.966 126.586 159.385 130.864 163.658C126.527 167.872 120.706 170.21 114.659 170.168C108.612 170.125 102.825 167.706 98.5472 163.432ZM139.275 106.389C136.065 109.599 133.518 113.41 131.78 117.605C130.042 121.799 129.148 126.294 129.148 130.834C129.148 135.374 130.042 139.87 131.78 144.064C133.518 148.259 136.065 152.07 139.275 155.279C132.789 148.798 123.995 145.156 114.826 145.156C105.657 145.156 96.8626 148.798 90.3768 155.279L90.3695 155.271C96.7462 148.768 100.3 140.012 100.257 130.904C100.215 121.797 96.5801 113.074 90.1423 106.631L106.42 90.3271C110.215 86.546 113.067 81.925 114.746 76.8377C116.44 81.8306 119.261 86.366 122.991 90.0918L139.275 106.388V106.389ZM147.417 114.531C151.735 118.855 154.161 124.717 154.161 130.829C154.161 136.94 151.735 142.802 147.417 147.126V147.135C143.1 142.808 140.676 136.946 140.677 130.834C140.677 124.721 143.102 118.858 147.419 114.532L147.417 114.531ZM196.06 179.969C193.921 182.109 191.381 183.808 188.585 184.966C185.79 186.124 182.793 186.721 179.767 186.721C176.741 186.721 173.744 186.124 170.948 184.966C168.152 183.808 165.612 182.109 163.473 179.969L147.178 163.671L163.472 147.369V147.361C167.796 143.04 173.66 140.614 179.773 140.615C185.886 140.617 191.749 143.047 196.07 147.371C200.391 151.695 202.818 157.558 202.817 163.672C202.815 169.785 200.385 175.647 196.06 179.969Z" fill="#775D6A"/>
</g>
</svg>
