<svg width="229" height="230" viewBox="0 0 229 230" fill="none" xmlns="http://www.w3.org/2000/svg">
<rect width="229" height="230" fill="#F5F5F5"/>
<g id="main page" clip-path="url(#clip0_28_482)">
<rect width="1440" height="8228" transform="translate(-110 -5306)" fill="white"/>
<rect id="Rectangle 34" x="-110" y="-380" width="1440" height="964" fill="#F0F1F4"/>
<g id="Frame 169">
<g id="partners-item">
<rect width="289" height="498" transform="translate(-30 -30)" fill="white"/>
<g id="Frame 174">
<g id="Standard Collection 13">
<g id="Clip path group">
<mask id="mask0_28_482" style="mask-type:luminance" maskUnits="userSpaceOnUse" x="21" y="22" width="187" height="187">
<g id="clip0">
<path id="Vector" d="M207.235 22H21V208.235H207.235V22Z" fill="white"/>
</g>
</mask>
<g mask="url(#mask0_28_482)">
<g id="Group">
<path id="Vector_2" d="M173.121 74.5031C176.322 73.6453 179.153 71.7582 181.176 69.133C183.199 66.5077 184.303 63.2898 184.317 59.9754V59.936C184.317 55.9525 182.735 52.1322 179.918 49.3155C177.101 46.4988 173.281 44.9164 169.298 44.9164H169.259C165.945 44.9309 162.728 46.0349 160.103 48.0582C157.478 50.0815 155.591 52.9118 154.734 56.113C152.28 65.0012 146.978 72.839 139.642 78.4245C132.305 84.01 123.339 87.0347 114.119 87.0347C104.898 87.0347 95.9321 84.01 88.5957 78.4245C81.2592 72.839 75.9577 65.0012 73.5039 56.113C72.6456 52.9121 70.7585 50.0821 68.1334 48.0593C65.5084 46.0365 62.291 44.933 58.977 44.9189H58.9376C54.9542 44.9189 51.1338 46.5013 48.3171 49.318C45.5004 52.1347 43.918 55.9551 43.918 59.9385V59.9779C43.9326 63.2919 45.0366 66.5092 47.0599 69.134C49.0832 71.7587 51.9135 73.6454 55.1146 74.5031C64.0028 76.9568 71.8407 82.2585 77.4261 89.5949C83.0116 96.9313 86.0363 105.897 86.0363 115.118C86.0363 124.339 83.0116 133.304 77.4261 140.641C71.8407 147.978 64.0028 153.279 55.1146 155.733C51.9137 156.591 49.0836 158.477 47.0605 161.102C45.0374 163.727 43.9335 166.944 43.9188 170.257V170.297C43.9188 174.281 45.5012 178.1 48.3179 180.918C51.1347 183.734 54.955 185.316 58.9384 185.316H58.9778C62.2919 185.302 65.5091 184.198 68.1339 182.175C70.7587 180.151 72.6453 177.321 73.503 174.12C75.9568 165.232 81.2585 157.394 88.5948 151.809C95.9313 146.222 104.897 143.198 114.118 143.198C123.339 143.198 132.304 146.222 139.641 151.809C146.977 157.394 152.279 165.232 154.733 174.12C155.59 177.321 157.477 180.152 160.102 182.176C162.727 184.198 165.945 185.303 169.259 185.317H169.298C173.281 185.317 177.102 183.734 179.919 180.918C182.735 178.101 184.318 174.281 184.318 170.298V170.257C184.304 166.943 183.199 163.726 181.176 161.101C179.153 158.477 176.323 156.59 173.121 155.732C164.233 153.278 156.396 147.977 150.81 140.64C145.224 133.304 142.2 124.338 142.2 115.117C142.2 105.897 145.224 96.9305 150.81 89.5941C156.396 82.2577 164.233 76.9561 173.121 74.5023L173.121 74.5031Z" fill="url(#paint0_linear_28_482)"/>
<path id="Vector_3" d="M40.6471 30.8905C41.1303 31.371 41.7511 31.6891 42.4234 31.8004C43.0956 31.9116 43.7858 31.8107 44.3981 31.5115C49.984 28.8139 56.2691 27.9154 62.3871 28.9399C68.5052 29.9644 74.1547 32.8615 78.557 37.2317C79.1639 37.8432 79.984 38.1959 80.8453 38.2156C81.7066 38.2353 82.542 37.9205 83.1761 37.3373C83.4912 37.0366 83.743 36.6759 83.9167 36.2764C84.0905 35.8769 84.1826 35.4468 84.1877 35.0112C84.1927 34.5756 84.1107 34.1434 83.9463 33.74C83.7819 33.3366 83.5386 32.9701 83.2306 32.6621C77.8622 27.3069 70.9603 23.7552 63.4821 22.4997C56.0041 21.2442 48.3206 22.3471 41.4977 25.6555C41.0332 25.8859 40.6302 26.2236 40.3223 26.6408C40.0144 27.0581 39.8105 27.5427 39.7273 28.0545C39.6441 28.5663 39.6842 29.0905 39.8442 29.5838C40.0041 30.077 40.2794 30.525 40.6471 30.8905Z" fill="url(#paint1_linear_28_482)"/>
<path id="Vector_4" d="M24.6663 42.4728C21.362 49.2738 20.2496 56.9325 21.4827 64.3925C22.7157 71.8525 26.2335 78.746 31.5506 84.1219C32.1097 84.7094 32.8627 85.0746 33.6702 85.15C34.4777 85.2253 35.2853 85.0057 35.9434 84.5317C36.3163 84.2499 36.6244 83.8915 36.847 83.4806C37.0695 83.0697 37.2014 82.6157 37.2336 82.1496C37.2659 81.6834 37.1978 81.2157 37.0339 80.778C36.87 80.3403 36.6142 79.9429 36.2837 79.6126C31.8911 75.2092 28.9766 69.5488 27.944 63.4155C26.9114 57.2821 27.8119 50.9795 30.5207 45.3807C30.8221 44.7678 30.9248 44.0761 30.8143 43.4021C30.7039 42.728 30.3859 42.1053 29.9047 41.6206C29.5389 41.2525 29.0906 40.9771 28.597 40.817C28.1033 40.657 27.5787 40.617 27.0665 40.7003C26.5543 40.7837 26.0694 40.9879 25.652 41.2962C25.2346 41.6044 24.8966 42.0078 24.6663 42.4728Z" fill="url(#paint2_linear_28_482)"/>
<path id="Vector_5" d="M183.841 198.725C178.253 201.423 171.966 202.322 165.846 201.295C159.727 200.269 154.076 197.37 149.674 192.997C149.068 192.389 148.251 192.038 147.393 192.018C146.534 191.998 145.702 192.312 145.069 192.892C144.752 193.192 144.499 193.553 144.324 193.953C144.15 194.353 144.057 194.784 144.051 195.22C144.045 195.657 144.127 196.09 144.292 196.494C144.456 196.899 144.7 197.266 145.008 197.574C150.376 202.929 157.278 206.481 164.757 207.737C172.234 208.992 179.918 207.889 186.741 204.581C187.205 204.35 187.608 204.013 187.917 203.595C188.224 203.178 188.428 202.694 188.511 202.182C188.594 201.67 188.554 201.145 188.394 200.652C188.233 200.159 187.958 199.711 187.59 199.346C187.107 198.866 186.486 198.548 185.814 198.437C185.143 198.325 184.452 198.426 183.841 198.725Z" fill="url(#paint3_linear_28_482)"/>
<path id="Vector_6" d="M191.892 146.067C191.311 146.699 190.998 147.532 191.018 148.391C191.037 149.249 191.388 150.067 191.997 150.672C196.373 155.077 199.273 160.733 200.296 166.857C201.32 172.982 200.417 179.273 197.712 184.862C197.412 185.475 197.311 186.166 197.421 186.838C197.533 187.511 197.85 188.133 198.331 188.617C198.697 188.985 199.144 189.259 199.637 189.42C200.13 189.58 200.653 189.621 201.165 189.538C201.677 189.455 202.162 189.252 202.578 188.944C202.996 188.637 203.334 188.235 203.565 187.77C206.883 180.946 207.994 173.257 206.742 165.773C205.49 158.287 201.937 151.379 196.578 146.006C196.27 145.696 195.902 145.453 195.497 145.287C195.092 145.122 194.659 145.04 194.223 145.046C193.785 145.052 193.354 145.145 192.954 145.321C192.553 145.496 192.193 145.749 191.892 146.067Z" fill="url(#paint4_linear_28_482)"/>
<path id="Vector_7" d="M197.718 45.3849C200.42 50.9733 201.321 57.2628 200.296 63.3851C199.272 69.5075 196.371 75.1608 191.997 79.5648C191.388 80.17 191.037 80.9874 191.018 81.8456C190.998 82.7039 191.311 83.5363 191.892 84.1688C192.192 84.4854 192.553 84.7387 192.953 84.9137C193.353 85.0886 193.783 85.1818 194.22 85.1875C194.657 85.1933 195.089 85.1116 195.494 84.9473C195.898 84.7829 196.266 84.5393 196.574 84.2308C201.931 78.8599 205.485 71.9542 206.738 64.4724C207.993 56.9906 206.887 49.3039 203.573 42.4795C203.343 42.0151 203.004 41.6126 202.587 41.305C202.169 40.9974 201.685 40.7937 201.173 40.711C200.662 40.6282 200.137 40.6685 199.644 40.8287C199.151 40.9889 198.703 41.2644 198.338 41.6323C197.858 42.1157 197.539 42.7369 197.428 43.4094C197.317 44.082 197.419 44.7724 197.718 45.3849Z" fill="url(#paint5_linear_28_482)"/>
<path id="Vector_8" d="M149.671 37.2394C154.075 32.8644 159.728 29.9642 165.851 28.9393C171.973 27.9144 178.262 28.8152 183.851 31.5174C184.464 31.8173 185.154 31.9188 185.826 31.8078C186.499 31.6968 187.12 31.3788 187.604 30.8981C187.972 30.5328 188.247 30.0851 188.407 29.592C188.567 29.0989 188.608 28.5748 188.525 28.063C188.443 27.5512 188.239 27.0665 187.931 26.6492C187.624 26.2318 187.221 25.8938 186.756 25.6631C179.932 22.3496 172.245 21.2431 164.764 22.4973C157.282 23.7516 150.376 27.3043 145.005 32.6621C144.697 32.9708 144.453 33.338 144.289 33.7423C144.124 34.1466 144.042 34.5797 144.048 35.016C144.054 35.4525 144.147 35.8833 144.321 36.2831C144.496 36.683 144.75 37.0438 145.066 37.3441C145.699 37.9245 146.531 38.2377 147.39 38.2181C148.248 38.1986 149.065 37.8479 149.671 37.2394Z" fill="url(#paint6_linear_28_482)"/>
<path id="Vector_9" d="M78.5646 192.997C74.1607 197.371 68.5074 200.272 62.3851 201.297C56.2627 202.321 49.9732 201.421 44.3847 198.718C43.7724 198.419 43.0819 198.317 42.4094 198.428C41.7368 198.54 41.1156 198.858 40.6321 199.338C40.2643 199.704 39.9889 200.151 39.8286 200.645C39.6684 201.137 39.628 201.662 39.7108 202.173C39.7937 202.685 39.9973 203.17 40.3049 203.587C40.6124 204.004 41.0151 204.343 41.4793 204.573C48.3038 207.887 55.9905 208.993 63.4723 207.738C70.9541 206.485 77.8598 202.932 83.2306 197.574C83.5392 197.266 83.7829 196.898 83.9472 196.494C84.1115 196.09 84.1932 195.657 84.1874 195.22C84.1816 194.784 84.0885 194.353 83.9135 193.953C83.7386 193.553 83.4852 193.192 83.1686 192.892C82.5364 192.311 81.7038 191.998 80.8455 192.017C79.9873 192.037 79.1698 192.388 78.5646 192.997Z" fill="url(#paint7_linear_28_482)"/>
<path id="Vector_10" d="M30.5183 184.851C27.8157 179.263 26.9146 172.973 27.9394 166.851C28.9642 160.729 31.8643 155.075 36.2394 150.672C36.8479 150.066 37.1987 149.249 37.2182 148.39C37.2377 147.532 36.9245 146.699 36.3442 146.067C36.0437 145.75 35.683 145.497 35.2832 145.322C34.8833 145.147 34.4524 145.054 34.0161 145.049C33.5797 145.043 33.1466 145.125 32.7423 145.289C32.3381 145.453 31.9708 145.697 31.6622 146.006C26.3043 151.376 22.7516 158.282 21.4973 165.764C20.2431 173.246 21.3496 180.932 24.6631 187.757C24.8938 188.221 25.2318 188.624 25.6492 188.932C26.0665 189.239 26.5512 189.443 27.063 189.525C27.5748 189.608 28.099 189.568 28.592 189.408C29.0851 189.248 29.5328 188.972 29.8982 188.604C30.3788 188.121 30.6967 187.5 30.8079 186.827C30.9191 186.155 30.8178 185.464 30.5183 184.851Z" fill="url(#paint8_linear_28_482)"/>
</g>
</g>
</g>
</g>
</g>
</g>
</g>
</g>
<defs>
<linearGradient id="paint0_linear_28_482" x1="114.118" y1="198.094" x2="114.118" y2="88.581" gradientUnits="userSpaceOnUse">
<stop offset="0.005" stop-color="#3F51DC"/>
<stop offset="1" stop-color="#2AC3D1"/>
</linearGradient>
<linearGradient id="paint1_linear_28_482" x1="61.9364" y1="198.139" x2="61.9364" y2="88.5986" gradientUnits="userSpaceOnUse">
<stop offset="0.005" stop-color="#3F51DC"/>
<stop offset="1" stop-color="#2AC3D1"/>
</linearGradient>
<linearGradient id="paint2_linear_28_482" x1="29.1175" y1="198.078" x2="29.1175" y2="88.5915" gradientUnits="userSpaceOnUse">
<stop offset="0.005" stop-color="#3F51DC"/>
<stop offset="1" stop-color="#2AC3D1"/>
</linearGradient>
<linearGradient id="paint3_linear_28_482" x1="166.302" y1="198.085" x2="166.302" y2="88.559" gradientUnits="userSpaceOnUse">
<stop offset="0.005" stop-color="#3F51DC"/>
<stop offset="1" stop-color="#2AC3D1"/>
</linearGradient>
<linearGradient id="paint4_linear_28_482" x1="199.129" y1="198.085" x2="199.129" y2="88.5774" gradientUnits="userSpaceOnUse">
<stop offset="0.005" stop-color="#3F51DC"/>
<stop offset="1" stop-color="#2AC3D1"/>
</linearGradient>
<linearGradient id="paint5_linear_28_482" x1="199.129" y1="198.088" x2="199.129" y2="88.5713" gradientUnits="userSpaceOnUse">
<stop offset="0.005" stop-color="#3F51DC"/>
<stop offset="1" stop-color="#2AC3D1"/>
</linearGradient>
<linearGradient id="paint6_linear_28_482" x1="166.307" y1="198.143" x2="166.307" y2="88.5958" gradientUnits="userSpaceOnUse">
<stop offset="0.005" stop-color="#3F51DC"/>
<stop offset="1" stop-color="#2AC3D1"/>
</linearGradient>
<linearGradient id="paint7_linear_28_482" x1="61.9283" y1="198.085" x2="61.9283" y2="88.5523" gradientUnits="userSpaceOnUse">
<stop offset="0.005" stop-color="#3F51DC"/>
<stop offset="1" stop-color="#2AC3D1"/>
</linearGradient>
<linearGradient id="paint8_linear_28_482" x1="29.1068" y1="198.07" x2="29.1068" y2="88.5978" gradientUnits="userSpaceOnUse">
<stop offset="0.005" stop-color="#3F51DC"/>
<stop offset="1" stop-color="#2AC3D1"/>
</linearGradient>
<clipPath id="clip0_28_482">
<rect width="1440" height="8228" fill="white" transform="translate(-110 -5306)"/>
</clipPath>
</defs>
</svg>
