<svg width="229" height="230" viewBox="0 0 229 230" fill="none" xmlns="http://www.w3.org/2000/svg">
<mask id="mask0_150_598" style="mask-type:luminance" maskUnits="userSpaceOnUse" x="20" y="31" width="189" height="169">
<path d="M209 31.1561H20.2676V199.79H209V31.1561Z" fill="white"/>
</mask>
<g mask="url(#mask0_150_598)">
<path d="M193.911 181.053C197.162 175.063 199.858 168.79 201.967 162.312C203.961 156.186 205.511 149.924 206.603 143.576C207.685 137.378 208.39 131.121 208.714 124.839C208.877 121.802 209 118.721 209 115.471C209 112.221 208.877 109.14 208.714 106.102C208.388 99.8202 207.684 93.5637 206.603 87.3668C205.511 81.0183 203.961 74.7566 201.967 68.63H67.8378C64.792 74.5723 62.4892 80.865 60.9812 87.3668C59.5272 93.5229 58.5945 99.79 58.1925 106.102C57.988 109.079 57.8504 112.177 57.8504 115.471C57.8504 118.765 57.988 121.861 58.1925 124.839C58.5939 131.151 59.5266 137.419 60.9812 143.576C62.4879 150.078 64.7907 156.371 67.8378 162.312H161.426C164.479 156.372 166.785 150.079 168.292 143.576C169.746 137.419 170.679 131.151 171.08 124.839C171.287 121.861 171.426 118.767 171.426 115.471C171.426 112.175 171.287 109.079 171.08 106.102H95.8051C95.5708 109.02 95.4333 112.131 95.4333 115.471C95.4333 118.812 95.5708 121.921 95.8051 124.839H152.253C151.807 131.189 150.668 137.472 148.856 143.576H80.4169C78.6051 137.471 77.463 131.189 77.0109 124.839C76.7804 121.921 76.6391 118.816 76.6391 115.471C76.6391 112.127 76.7748 109.02 77.0109 106.102C77.4638 99.7524 78.6059 93.4708 80.4169 87.3668H187.53C188.75 93.5477 189.54 99.805 189.897 106.094C190.083 109.107 190.207 112.212 190.207 115.464C190.207 118.715 190.077 121.819 189.897 124.831C189.54 131.124 188.748 137.384 187.527 143.568C186.266 149.963 184.435 156.234 182.057 162.305C179.484 168.989 176.012 175.294 171.737 181.046H57.5251C53.2466 175.295 49.7733 168.99 47.2012 162.305C44.8228 156.234 42.993 149.964 41.7334 143.568C40.5084 137.385 39.7164 131.124 39.363 124.831C39.1771 121.819 39.0544 118.73 39.0544 115.464C39.0544 112.197 39.1845 109.107 39.363 106.094C39.717 99.8023 40.509 93.5422 41.7334 87.3594C42.9932 80.964 44.8231 74.6935 47.2012 68.6225C49.7741 61.9389 53.2473 55.6354 57.5251 49.8857H193.907C186.894 37.057 180.066 31.1488 180.066 31.1488H49.1942C49.1942 31.1488 42.3692 37.057 35.3583 49.8857C32.1081 55.8744 29.4117 62.1459 27.3026 68.6225C25.3083 74.7493 23.7581 81.0111 22.664 87.3594C21.5824 93.5563 20.8771 99.8126 20.552 106.094C20.3884 109.133 20.2676 112.212 20.2676 115.464C20.2676 118.715 20.3884 121.795 20.552 124.831C20.8767 131.114 21.5819 137.371 22.664 143.568C23.7581 149.916 25.3083 156.178 27.3026 162.305C29.4103 168.783 32.1067 175.056 35.3583 181.046C42.3692 193.869 49.1942 199.782 49.1942 199.782H180.07C180.07 199.782 186.898 193.876 193.911 181.053Z" fill="#90601D"/>
</g>
</svg>
